<svg width="39" height="38" viewBox="0 0 39 38" fill="none" xmlns="http://www.w3.org/2000/svg">
<g id="icons8-production 1">
<path id="Vector" d="M8.8125 4.75V5.9375V11.875H10V22.5625H29V11.875H30.1875V4.75H8.8125ZM11.1875 7.125H27.8125V9.5H26.625V20.1875H12.375V9.5H11.1875V7.125ZM22.2229 11.0354L18.3125 14.9458L16.7771 13.4104L15.0979 15.0896L18.3125 18.3042L23.9021 12.7146L22.2229 11.0354ZM5.25 23.75V26.125H29C30.4134 26.125 31.375 27.0866 31.375 28.5C31.375 29.9134 30.4134 30.875 29 30.875H5.25V33.25H29C31.6241 33.25 33.75 31.1241 33.75 28.5C33.75 25.8759 31.6241 23.75 29 23.75H5.25ZM5.25 27.3125V29.6875C5.9625 29.6875 6.4375 29.2125 6.4375 28.5C6.4375 27.7875 5.9625 27.3125 5.25 27.3125ZM10 27.3125C9.3445 27.3125 8.8125 27.8445 8.8125 28.5C8.8125 29.1555 9.3445 29.6875 10 29.6875C10.6555 29.6875 11.1875 29.1555 11.1875 28.5C11.1875 27.8445 10.6555 27.3125 10 27.3125ZM14.75 27.3125C14.0945 27.3125 13.5625 27.8445 13.5625 28.5C13.5625 29.1555 14.0945 29.6875 14.75 29.6875C15.4055 29.6875 15.9375 29.1555 15.9375 28.5C15.9375 27.8445 15.4055 27.3125 14.75 27.3125ZM19.5 27.3125C18.8445 27.3125 18.3125 27.8445 18.3125 28.5C18.3125 29.1555 18.8445 29.6875 19.5 29.6875C20.1555 29.6875 20.6875 29.1555 20.6875 28.5C20.6875 27.8445 20.1555 27.3125 19.5 27.3125ZM24.25 27.3125C23.5945 27.3125 23.0625 27.8445 23.0625 28.5C23.0625 29.1555 23.5945 29.6875 24.25 29.6875C24.9055 29.6875 25.4375 29.1555 25.4375 28.5C25.4375 27.8445 24.9055 27.3125 24.25 27.3125ZM29 27.3125C28.3445 27.3125 27.8125 27.8445 27.8125 28.5C27.8125 29.1555 28.3445 29.6875 29 29.6875C29.6555 29.6875 30.1875 29.1555 30.1875 28.5C30.1875 27.8445 29.6555 27.3125 29 27.3125Z" fill="#735BF2"/>
</g>
</svg>
